<mxfile host="app.diagrams.net" modified="2023-04-28T06:06:51.626Z" agent="Mozilla/5.0 (Windows NT 10.0; Win64; x64) AppleWebKit/537.36 (KHTML, like Gecko) Chrome/112.0.0.0 Safari/537.36" etag="IhTeXy-N6_7MnHnwW_CE" version="21.2.1" type="github">
  <diagram id="yPxyJZ8AM_hMuL3Unpa9" name="gitflow">
    <mxGraphModel dx="1906" dy="723" grid="1" gridSize="10" guides="1" tooltips="1" connect="1" arrows="1" fold="1" page="1" pageScale="1" pageWidth="850" pageHeight="1100" math="0" shadow="0">
      <root>
        <mxCell id="0" />
        <mxCell id="1" parent="0" />
        <mxCell id="P5vlj9XZnF4QkY1AiVie-217" style="edgeStyle=orthogonalEdgeStyle;rounded=0;orthogonalLoop=1;jettySize=auto;html=1;entryX=0.5;entryY=0;entryDx=0;entryDy=0;" edge="1" parent="1" source="P5vlj9XZnF4QkY1AiVie-179" target="P5vlj9XZnF4QkY1AiVie-216">
          <mxGeometry relative="1" as="geometry" />
        </mxCell>
        <mxCell id="P5vlj9XZnF4QkY1AiVie-179" value="" style="ellipse;whiteSpace=wrap;html=1;aspect=fixed;fillColor=#1ba1e2;fontColor=#ffffff;strokeColor=#006EAF;" vertex="1" parent="1">
          <mxGeometry x="630" y="160" width="20" height="20" as="geometry" />
        </mxCell>
        <mxCell id="P5vlj9XZnF4QkY1AiVie-185" style="edgeStyle=orthogonalEdgeStyle;rounded=0;orthogonalLoop=1;jettySize=auto;html=1;entryX=0.5;entryY=0;entryDx=0;entryDy=0;" edge="1" parent="1" source="P5vlj9XZnF4QkY1AiVie-180" target="P5vlj9XZnF4QkY1AiVie-179">
          <mxGeometry relative="1" as="geometry" />
        </mxCell>
        <mxCell id="P5vlj9XZnF4QkY1AiVie-180" value="master" style="rounded=0;whiteSpace=wrap;html=1;fillColor=#dae8fc;strokeColor=#6c8ebf;" vertex="1" parent="1">
          <mxGeometry x="590" y="90" width="100" height="30" as="geometry" />
        </mxCell>
        <mxCell id="P5vlj9XZnF4QkY1AiVie-215" style="edgeStyle=orthogonalEdgeStyle;rounded=0;orthogonalLoop=1;jettySize=auto;html=1;entryX=0.5;entryY=0;entryDx=0;entryDy=0;" edge="1" parent="1" source="P5vlj9XZnF4QkY1AiVie-182" target="P5vlj9XZnF4QkY1AiVie-213">
          <mxGeometry relative="1" as="geometry" />
        </mxCell>
        <mxCell id="P5vlj9XZnF4QkY1AiVie-182" value="release-xxx.xx.xx" style="rounded=0;whiteSpace=wrap;html=1;fillColor=#fff2cc;strokeColor=#d6b656;" vertex="1" parent="1">
          <mxGeometry x="425" y="90" width="100" height="30" as="geometry" />
        </mxCell>
        <mxCell id="P5vlj9XZnF4QkY1AiVie-191" style="edgeStyle=orthogonalEdgeStyle;rounded=0;orthogonalLoop=1;jettySize=auto;html=1;entryX=0.5;entryY=0;entryDx=0;entryDy=0;" edge="1" parent="1" source="P5vlj9XZnF4QkY1AiVie-183" target="P5vlj9XZnF4QkY1AiVie-186">
          <mxGeometry relative="1" as="geometry">
            <mxPoint x="310" y="920" as="targetPoint" />
          </mxGeometry>
        </mxCell>
        <mxCell id="P5vlj9XZnF4QkY1AiVie-183" value="devel_xxx" style="rounded=0;whiteSpace=wrap;html=1;fillColor=#d5e8d4;strokeColor=#82b366;" vertex="1" parent="1">
          <mxGeometry x="260" y="90" width="100" height="30" as="geometry" />
        </mxCell>
        <mxCell id="P5vlj9XZnF4QkY1AiVie-192" style="edgeStyle=orthogonalEdgeStyle;rounded=0;orthogonalLoop=1;jettySize=auto;html=1;entryX=0.5;entryY=0;entryDx=0;entryDy=0;" edge="1" parent="1" source="P5vlj9XZnF4QkY1AiVie-184" target="P5vlj9XZnF4QkY1AiVie-193">
          <mxGeometry relative="1" as="geometry">
            <mxPoint x="150" y="260" as="targetPoint" />
          </mxGeometry>
        </mxCell>
        <mxCell id="P5vlj9XZnF4QkY1AiVie-184" value="feature" style="rounded=0;whiteSpace=wrap;html=1;fillColor=#e1d5e7;strokeColor=#9673a6;" vertex="1" parent="1">
          <mxGeometry x="100" y="90" width="100" height="30" as="geometry" />
        </mxCell>
        <mxCell id="P5vlj9XZnF4QkY1AiVie-195" style="edgeStyle=orthogonalEdgeStyle;rounded=0;orthogonalLoop=1;jettySize=auto;html=1;entryX=0.5;entryY=0;entryDx=0;entryDy=0;" edge="1" parent="1" source="P5vlj9XZnF4QkY1AiVie-186" target="P5vlj9XZnF4QkY1AiVie-194">
          <mxGeometry relative="1" as="geometry" />
        </mxCell>
        <mxCell id="P5vlj9XZnF4QkY1AiVie-186" value="" style="ellipse;whiteSpace=wrap;html=1;aspect=fixed;fillColor=#60a917;fontColor=#ffffff;strokeColor=#2D7600;" vertex="1" parent="1">
          <mxGeometry x="300" y="210" width="20" height="20" as="geometry" />
        </mxCell>
        <mxCell id="P5vlj9XZnF4QkY1AiVie-190" value="" style="endArrow=classic;html=1;rounded=0;exitX=0;exitY=0.5;exitDx=0;exitDy=0;entryX=1.2;entryY=0.15;entryDx=0;entryDy=0;entryPerimeter=0;dashed=1;" edge="1" parent="1" source="P5vlj9XZnF4QkY1AiVie-179" target="P5vlj9XZnF4QkY1AiVie-186">
          <mxGeometry width="50" height="50" relative="1" as="geometry">
            <mxPoint x="470" y="220" as="sourcePoint" />
            <mxPoint x="340" y="220" as="targetPoint" />
          </mxGeometry>
        </mxCell>
        <mxCell id="P5vlj9XZnF4QkY1AiVie-235" value="브랜치 생성" style="edgeLabel;html=1;align=center;verticalAlign=middle;resizable=0;points=[];fontStyle=1;fontSize=13;" vertex="1" connectable="0" parent="P5vlj9XZnF4QkY1AiVie-190">
          <mxGeometry x="0.1789" y="3" relative="1" as="geometry">
            <mxPoint x="-40" y="-8" as="offset" />
          </mxGeometry>
        </mxCell>
        <mxCell id="P5vlj9XZnF4QkY1AiVie-238" value="머지" style="edgeLabel;html=1;align=center;verticalAlign=middle;resizable=0;points=[];fontStyle=1;fontSize=13;" vertex="1" connectable="0" parent="P5vlj9XZnF4QkY1AiVie-190">
          <mxGeometry x="0.1789" y="3" relative="1" as="geometry">
            <mxPoint x="-219" y="315" as="offset" />
          </mxGeometry>
        </mxCell>
        <mxCell id="P5vlj9XZnF4QkY1AiVie-203" style="edgeStyle=orthogonalEdgeStyle;rounded=0;orthogonalLoop=1;jettySize=auto;html=1;entryX=0.5;entryY=0;entryDx=0;entryDy=0;" edge="1" parent="1" source="P5vlj9XZnF4QkY1AiVie-193" target="P5vlj9XZnF4QkY1AiVie-199">
          <mxGeometry relative="1" as="geometry" />
        </mxCell>
        <mxCell id="P5vlj9XZnF4QkY1AiVie-193" value="" style="ellipse;whiteSpace=wrap;html=1;aspect=fixed;fillColor=#6a00ff;fontColor=#ffffff;strokeColor=#3700CC;" vertex="1" parent="1">
          <mxGeometry x="140" y="390" width="20" height="20" as="geometry" />
        </mxCell>
        <mxCell id="P5vlj9XZnF4QkY1AiVie-197" style="edgeStyle=orthogonalEdgeStyle;rounded=0;orthogonalLoop=1;jettySize=auto;html=1;entryX=0.5;entryY=0;entryDx=0;entryDy=0;" edge="1" parent="1" source="P5vlj9XZnF4QkY1AiVie-194" target="P5vlj9XZnF4QkY1AiVie-196">
          <mxGeometry relative="1" as="geometry" />
        </mxCell>
        <mxCell id="P5vlj9XZnF4QkY1AiVie-194" value="" style="ellipse;whiteSpace=wrap;html=1;aspect=fixed;fillColor=#60a917;fontColor=#ffffff;strokeColor=#2D7600;" vertex="1" parent="1">
          <mxGeometry x="300" y="270" width="20" height="20" as="geometry" />
        </mxCell>
        <mxCell id="P5vlj9XZnF4QkY1AiVie-202" style="edgeStyle=orthogonalEdgeStyle;rounded=0;orthogonalLoop=1;jettySize=auto;html=1;" edge="1" parent="1" source="P5vlj9XZnF4QkY1AiVie-196" target="P5vlj9XZnF4QkY1AiVie-201">
          <mxGeometry relative="1" as="geometry" />
        </mxCell>
        <mxCell id="P5vlj9XZnF4QkY1AiVie-196" value="" style="ellipse;whiteSpace=wrap;html=1;aspect=fixed;fillColor=#60a917;fontColor=#ffffff;strokeColor=#2D7600;" vertex="1" parent="1">
          <mxGeometry x="300" y="330" width="20" height="20" as="geometry" />
        </mxCell>
        <mxCell id="P5vlj9XZnF4QkY1AiVie-198" value="" style="endArrow=classic;html=1;rounded=0;exitX=0;exitY=0.5;exitDx=0;exitDy=0;dashed=1;entryX=1;entryY=0.5;entryDx=0;entryDy=0;" edge="1" parent="1" source="P5vlj9XZnF4QkY1AiVie-196" target="P5vlj9XZnF4QkY1AiVie-193">
          <mxGeometry width="50" height="50" relative="1" as="geometry">
            <mxPoint x="630" y="170" as="sourcePoint" />
            <mxPoint x="270" y="380" as="targetPoint" />
            <Array as="points" />
          </mxGeometry>
        </mxCell>
        <mxCell id="P5vlj9XZnF4QkY1AiVie-204" style="edgeStyle=orthogonalEdgeStyle;rounded=0;orthogonalLoop=1;jettySize=auto;html=1;" edge="1" parent="1" source="P5vlj9XZnF4QkY1AiVie-199" target="P5vlj9XZnF4QkY1AiVie-200">
          <mxGeometry relative="1" as="geometry" />
        </mxCell>
        <mxCell id="P5vlj9XZnF4QkY1AiVie-199" value="" style="ellipse;whiteSpace=wrap;html=1;aspect=fixed;fillColor=#6a00ff;fontColor=#ffffff;strokeColor=#3700CC;" vertex="1" parent="1">
          <mxGeometry x="140" y="440" width="20" height="20" as="geometry" />
        </mxCell>
        <mxCell id="P5vlj9XZnF4QkY1AiVie-200" value="" style="ellipse;whiteSpace=wrap;html=1;aspect=fixed;fillColor=#6a00ff;fontColor=#ffffff;strokeColor=#3700CC;" vertex="1" parent="1">
          <mxGeometry x="140" y="490" width="20" height="20" as="geometry" />
        </mxCell>
        <mxCell id="P5vlj9XZnF4QkY1AiVie-212" style="edgeStyle=orthogonalEdgeStyle;rounded=0;orthogonalLoop=1;jettySize=auto;html=1;entryX=0.5;entryY=0;entryDx=0;entryDy=0;" edge="1" parent="1" source="P5vlj9XZnF4QkY1AiVie-201" target="P5vlj9XZnF4QkY1AiVie-207">
          <mxGeometry relative="1" as="geometry" />
        </mxCell>
        <mxCell id="P5vlj9XZnF4QkY1AiVie-201" value="" style="ellipse;whiteSpace=wrap;html=1;aspect=fixed;fillColor=#60a917;fontColor=#ffffff;strokeColor=#2D7600;" vertex="1" parent="1">
          <mxGeometry x="300" y="390" width="20" height="20" as="geometry" />
        </mxCell>
        <mxCell id="P5vlj9XZnF4QkY1AiVie-206" style="edgeStyle=orthogonalEdgeStyle;rounded=0;orthogonalLoop=1;jettySize=auto;html=1;entryX=0.5;entryY=0;entryDx=0;entryDy=0;" edge="1" source="P5vlj9XZnF4QkY1AiVie-207" target="P5vlj9XZnF4QkY1AiVie-209" parent="1">
          <mxGeometry relative="1" as="geometry" />
        </mxCell>
        <mxCell id="P5vlj9XZnF4QkY1AiVie-207" value="" style="ellipse;whiteSpace=wrap;html=1;aspect=fixed;fillColor=#6a00ff;fontColor=#ffffff;strokeColor=#3700CC;" vertex="1" parent="1">
          <mxGeometry x="300" y="440" width="20" height="20" as="geometry" />
        </mxCell>
        <mxCell id="P5vlj9XZnF4QkY1AiVie-208" style="edgeStyle=orthogonalEdgeStyle;rounded=0;orthogonalLoop=1;jettySize=auto;html=1;" edge="1" source="P5vlj9XZnF4QkY1AiVie-209" target="P5vlj9XZnF4QkY1AiVie-210" parent="1">
          <mxGeometry relative="1" as="geometry" />
        </mxCell>
        <mxCell id="P5vlj9XZnF4QkY1AiVie-209" value="" style="ellipse;whiteSpace=wrap;html=1;aspect=fixed;fillColor=#6a00ff;fontColor=#ffffff;strokeColor=#3700CC;" vertex="1" parent="1">
          <mxGeometry x="300" y="490" width="20" height="20" as="geometry" />
        </mxCell>
        <mxCell id="P5vlj9XZnF4QkY1AiVie-210" value="" style="ellipse;whiteSpace=wrap;html=1;aspect=fixed;fillColor=#6a00ff;fontColor=#ffffff;strokeColor=#3700CC;" vertex="1" parent="1">
          <mxGeometry x="300" y="540" width="20" height="20" as="geometry" />
        </mxCell>
        <mxCell id="P5vlj9XZnF4QkY1AiVie-211" value="" style="endArrow=classic;html=1;rounded=0;exitX=1;exitY=0.5;exitDx=0;exitDy=0;entryX=0;entryY=0.5;entryDx=0;entryDy=0;" edge="1" parent="1" source="P5vlj9XZnF4QkY1AiVie-200" target="P5vlj9XZnF4QkY1AiVie-210">
          <mxGeometry width="50" height="50" relative="1" as="geometry">
            <mxPoint x="630" y="170" as="sourcePoint" />
            <mxPoint x="324" y="213" as="targetPoint" />
            <Array as="points" />
          </mxGeometry>
        </mxCell>
        <mxCell id="P5vlj9XZnF4QkY1AiVie-220" style="edgeStyle=orthogonalEdgeStyle;rounded=0;orthogonalLoop=1;jettySize=auto;html=1;" edge="1" parent="1" source="P5vlj9XZnF4QkY1AiVie-213" target="P5vlj9XZnF4QkY1AiVie-218">
          <mxGeometry relative="1" as="geometry" />
        </mxCell>
        <mxCell id="P5vlj9XZnF4QkY1AiVie-240" style="edgeStyle=orthogonalEdgeStyle;rounded=0;orthogonalLoop=1;jettySize=auto;html=1;entryX=1;entryY=0.5;entryDx=0;entryDy=0;" edge="1" parent="1" source="P5vlj9XZnF4QkY1AiVie-213" target="P5vlj9XZnF4QkY1AiVie-218">
          <mxGeometry relative="1" as="geometry">
            <Array as="points">
              <mxPoint x="510" y="610" />
              <mxPoint x="510" y="660" />
            </Array>
          </mxGeometry>
        </mxCell>
        <mxCell id="P5vlj9XZnF4QkY1AiVie-213" value="" style="ellipse;whiteSpace=wrap;html=1;aspect=fixed;fillColor=#a20025;fontColor=#ffffff;strokeColor=#6F0000;" vertex="1" parent="1">
          <mxGeometry x="465" y="600" width="20" height="20" as="geometry" />
        </mxCell>
        <mxCell id="P5vlj9XZnF4QkY1AiVie-214" value="" style="endArrow=classic;html=1;rounded=0;exitX=1;exitY=1;exitDx=0;exitDy=0;entryX=0;entryY=0.5;entryDx=0;entryDy=0;dashed=1;" edge="1" parent="1" source="P5vlj9XZnF4QkY1AiVie-210" target="P5vlj9XZnF4QkY1AiVie-213">
          <mxGeometry width="50" height="50" relative="1" as="geometry">
            <mxPoint x="630" y="170" as="sourcePoint" />
            <mxPoint x="324" y="213" as="targetPoint" />
            <Array as="points" />
          </mxGeometry>
        </mxCell>
        <mxCell id="P5vlj9XZnF4QkY1AiVie-216" value="" style="ellipse;whiteSpace=wrap;html=1;aspect=fixed;fillColor=#1ba1e2;fontColor=#ffffff;strokeColor=#006EAF;" vertex="1" parent="1">
          <mxGeometry x="630" y="760" width="20" height="20" as="geometry" />
        </mxCell>
        <mxCell id="P5vlj9XZnF4QkY1AiVie-221" style="edgeStyle=orthogonalEdgeStyle;rounded=0;orthogonalLoop=1;jettySize=auto;html=1;entryX=0.5;entryY=0;entryDx=0;entryDy=0;" edge="1" parent="1" source="P5vlj9XZnF4QkY1AiVie-218" target="P5vlj9XZnF4QkY1AiVie-219">
          <mxGeometry relative="1" as="geometry" />
        </mxCell>
        <mxCell id="P5vlj9XZnF4QkY1AiVie-218" value="" style="ellipse;whiteSpace=wrap;html=1;aspect=fixed;fillColor=#a20025;fontColor=#ffffff;strokeColor=#6F0000;" vertex="1" parent="1">
          <mxGeometry x="465" y="650" width="20" height="20" as="geometry" />
        </mxCell>
        <mxCell id="P5vlj9XZnF4QkY1AiVie-219" value="" style="ellipse;whiteSpace=wrap;html=1;aspect=fixed;fillColor=#a20025;fontColor=#ffffff;strokeColor=#6F0000;" vertex="1" parent="1">
          <mxGeometry x="465" y="710" width="20" height="20" as="geometry" />
        </mxCell>
        <mxCell id="P5vlj9XZnF4QkY1AiVie-222" value="" style="endArrow=classic;html=1;rounded=0;exitX=1;exitY=1;exitDx=0;exitDy=0;" edge="1" parent="1" source="P5vlj9XZnF4QkY1AiVie-219" target="P5vlj9XZnF4QkY1AiVie-216">
          <mxGeometry width="50" height="50" relative="1" as="geometry">
            <mxPoint x="160" y="500" as="sourcePoint" />
            <mxPoint x="300" y="550" as="targetPoint" />
            <Array as="points" />
          </mxGeometry>
        </mxCell>
        <mxCell id="P5vlj9XZnF4QkY1AiVie-236" value="브랜치 생성" style="edgeLabel;html=1;align=center;verticalAlign=middle;resizable=0;points=[];fontStyle=1;fontSize=13;" vertex="1" connectable="0" parent="1">
          <mxGeometry x="229.9982324207827" y="369.9971419058126" as="geometry" />
        </mxCell>
        <mxCell id="P5vlj9XZnF4QkY1AiVie-237" value="브랜치 생성" style="edgeLabel;html=1;align=center;verticalAlign=middle;resizable=0;points=[];fontStyle=1;fontSize=13;" vertex="1" connectable="0" parent="1">
          <mxGeometry x="389.9982324207827" y="579.9971419058127" as="geometry" />
        </mxCell>
        <mxCell id="P5vlj9XZnF4QkY1AiVie-239" value="머지 ( TAG 100.00.00 )" style="edgeLabel;html=1;align=center;verticalAlign=middle;resizable=0;points=[];fontStyle=1;fontSize=13;" vertex="1" connectable="0" parent="1">
          <mxGeometry x="549.9982324207826" y="739.9971419058127" as="geometry">
            <mxPoint x="-2" y="4" as="offset" />
          </mxGeometry>
        </mxCell>
        <mxCell id="P5vlj9XZnF4QkY1AiVie-241" value="결함 개선" style="edgeLabel;html=1;align=center;verticalAlign=middle;resizable=0;points=[];fontStyle=1;fontSize=13;" vertex="1" connectable="0" parent="1">
          <mxGeometry x="542.9982324207826" y="639.9971419058127" as="geometry" />
        </mxCell>
        <mxCell id="P5vlj9XZnF4QkY1AiVie-242" value="공장 배포 브랜치 &lt;br&gt;( PLM 배포 버전)" style="text;strokeColor=default;align=center;fillColor=none;html=1;verticalAlign=middle;whiteSpace=wrap;rounded=0;fontSize=10;" vertex="1" parent="1">
          <mxGeometry x="590" y="45" width="100" height="30" as="geometry" />
        </mxCell>
        <mxCell id="P5vlj9XZnF4QkY1AiVie-243" value="검증 배포 브랜치" style="text;strokeColor=default;align=center;fillColor=none;html=1;verticalAlign=middle;whiteSpace=wrap;rounded=0;fontSize=10;" vertex="1" parent="1">
          <mxGeometry x="425" y="50" width="100" height="20" as="geometry" />
        </mxCell>
        <mxCell id="P5vlj9XZnF4QkY1AiVie-244" value="개발 브랜치" style="text;strokeColor=default;align=center;fillColor=none;html=1;verticalAlign=middle;whiteSpace=wrap;rounded=0;fontSize=10;" vertex="1" parent="1">
          <mxGeometry x="260" y="50" width="100" height="20" as="geometry" />
        </mxCell>
        <mxCell id="P5vlj9XZnF4QkY1AiVie-245" value="기능 변경/추가&lt;br&gt;&amp;nbsp;브랜치" style="text;strokeColor=default;align=center;fillColor=none;html=1;verticalAlign=middle;whiteSpace=wrap;rounded=0;fontSize=10;" vertex="1" parent="1">
          <mxGeometry x="100" y="50" width="100" height="30" as="geometry" />
        </mxCell>
      </root>
    </mxGraphModel>
  </diagram>
</mxfile>
